<?xml version="1.0" standalone="no"?>
<!DOCTYPE svg PUBLIC "-//W3C//DTD SVG 20010904//EN"
 "http://www.w3.org/TR/2001/REC-SVG-20010904/DTD/svg10.dtd">
<svg version="1.0" xmlns="http://www.w3.org/2000/svg"
 width="700.000000pt" height="700.000000pt" viewBox="0 0 700.000000 700.000000"
 preserveAspectRatio="xMidYMid meet">
<metadata>
Created by potrace 1.14, written by Peter Selinger 2001-2017
</metadata>
<g transform="translate(0.000000,700.000000) scale(0.100000,-0.100000)"
fill="#000000" stroke="none">
<path d="M0 6716 l0 -284 101 2 c55 0 102 -1 104 -4 3 -5 9 -116 20 -370 3
-58 7 -145 10 -195 12 -249 16 -328 20 -420 7 -168 15 -326 20 -420 2 -49 7
-142 10 -205 13 -307 16 -358 20 -438 10 -199 18 -367 30 -632 8 -182 17 -360
30 -615 3 -55 7 -154 10 -220 3 -66 7 -160 10 -210 5 -92 11 -224 20 -420 2
-60 7 -155 10 -210 7 -137 15 -301 20 -415 2 -52 7 -147 10 -210 3 -63 8 -166
11 -229 3 -63 7 -118 10 -122 10 -16 -33 -25 -111 -23 l-80 2 1 -282 1 -281
287 -3 287 -2 -1 47 c-4 101 -1 115 18 109 9 -3 62 -8 117 -11 55 -4 107 -8
115 -10 8 -2 51 -7 95 -10 100 -8 141 -11 230 -20 78 -7 117 -11 220 -20 39
-3 88 -7 110 -10 22 -2 72 -7 110 -10 39 -3 88 -8 110 -10 22 -2 72 -7 110
-10 39 -3 88 -8 110 -10 22 -3 69 -7 105 -10 36 -3 90 -7 120 -10 30 -3 80 -8
110 -10 144 -12 188 -16 220 -20 19 -3 69 -7 110 -11 41 -3 91 -7 110 -9 19
-2 69 -6 110 -10 41 -3 91 -8 110 -10 19 -3 71 -7 115 -10 44 -3 90 -7 102 -9
12 -3 61 -7 110 -10 48 -3 104 -8 123 -11 19 -2 67 -7 105 -10 39 -3 93 -7
120 -10 101 -10 142 -14 220 -20 115 -10 143 -12 205 -19 30 -3 87 -8 125 -11
39 -3 88 -8 110 -10 22 -2 72 -7 110 -10 39 -3 88 -8 110 -10 38 -4 61 -6 230
-20 39 -4 88 -8 110 -10 103 -11 253 -24 330 -30 33 -3 80 -7 105 -10 25 -2
77 -7 115 -10 39 -3 86 -8 105 -10 19 -2 73 -7 120 -11 47 -3 92 -8 102 -9 9
-2 56 -6 105 -10 48 -4 104 -8 123 -10 19 -2 73 -7 120 -11 47 -4 92 -8 100
-9 12 -1 16 -20 18 -83 l3 -82 284 0 285 0 0 284 0 284 -81 -1 c-44 0 -84 4
-89 9 -5 5 -11 137 -15 294 -4 157 -8 337 -10 400 -2 63 -6 216 -10 340 -3
124 -7 302 -10 395 -3 94 -7 260 -10 370 -3 110 -7 272 -10 360 -2 88 -7 255
-10 370 -5 213 -11 407 -20 750 -3 105 -7 271 -10 370 -11 411 -15 579 -20
750 -3 99 -7 261 -10 360 -2 99 -7 281 -11 405 -16 573 -18 680 -12 685 2 3
38 6 79 7 l74 3 0 280 0 280 -285 3 -286 2 1 -85 c1 -47 -1 -86 -4 -86 -4 -1
-1283 -2 -2844 -3 l-2837 -1 0 88 0 87 -285 0 -285 0 0 -284z m410 -1 l0 -126
-124 2 -124 1 -1 124 -1 124 125 0 125 0 0 -125z m6255 10 c0 -60 -1 -115 -3
-122 -4 -12 -241 -17 -243 -4 -4 18 -5 227 -1 234 2 4 58 6 125 5 l121 -3 1
-110z m-430 -135 c19 0 20 -6 19 -67 0 -38 1 -73 4 -80 2 -8 30 -11 88 -10
l84 2 1 -30 c0 -16 2 -68 4 -115 2 -47 6 -197 9 -335 4 -137 9 -311 11 -385 2
-74 7 -236 10 -360 7 -278 14 -535 20 -745 2 -88 7 -259 10 -380 3 -121 7
-296 10 -390 3 -93 7 -258 10 -365 3 -107 7 -276 10 -375 2 -99 7 -270 10
-380 8 -320 15 -547 20 -745 3 -102 8 -261 10 -355 7 -268 15 -587 21 -752 l4
-153 -52 -1 c-29 -1 -65 -1 -80 -1 l-28 1 0 -86 0 -85 -97 7 c-54 4 -100 9
-103 10 -3 2 -52 6 -110 10 -58 4 -113 9 -123 10 -9 2 -56 7 -105 10 -48 4
-98 8 -112 10 -14 2 -59 6 -100 10 -73 6 -118 10 -217 20 -27 2 -79 7 -118 10
-38 3 -90 7 -115 10 -25 3 -72 7 -105 10 -33 3 -80 7 -105 10 -40 4 -79 7
-220 20 -19 2 -69 6 -110 9 -176 15 -280 25 -330 31 -19 2 -73 7 -120 10 -47
3 -103 8 -125 10 -22 2 -71 7 -110 10 -38 3 -88 8 -110 10 -58 6 -140 13 -220
20 -100 9 -163 14 -220 20 -103 10 -152 15 -220 21 -38 3 -86 7 -105 9 -19 2
-73 6 -120 10 -47 4 -96 8 -110 10 -14 2 -61 7 -105 10 -44 3 -96 8 -115 10
-19 3 -66 7 -105 10 -38 3 -88 7 -110 10 -49 5 -192 18 -335 30 -41 3 -89 8
-106 10 -17 3 -65 7 -105 10 -41 3 -92 8 -114 10 -22 2 -76 7 -120 10 -44 3
-96 8 -115 10 -19 3 -64 7 -100 10 -36 3 -85 7 -110 10 -25 2 -101 9 -170 15
-69 6 -145 13 -170 15 -130 13 -165 17 -167 19 -2 1 -4 40 -5 87 l-3 84 -73 0
c-39 0 -72 2 -73 5 -3 17 -7 86 -14 235 -3 94 -8 190 -10 215 -1 25 -6 113 -9
195 -4 83 -9 188 -11 235 -3 47 -7 137 -10 200 -12 261 -15 329 -20 415 -2 50
-7 146 -10 215 -3 69 -8 170 -10 225 -3 55 -7 152 -10 215 -3 63 -7 149 -10
190 -3 41 -7 138 -10 215 -4 77 -8 176 -10 220 -3 44 -7 136 -10 205 -3 69 -8
157 -10 195 -2 39 -6 133 -10 210 -3 77 -8 183 -11 235 -2 52 -7 142 -9 200
-3 58 -7 150 -10 205 -3 55 -7 154 -10 220 -3 66 -7 161 -10 210 -2 50 -7 142
-10 205 -3 63 -7 156 -10 205 -2 50 -7 155 -10 235 -4 80 -8 165 -10 190 -2
24 0 49 5 55 4 5 33 9 64 9 l56 -2 0 79 0 78 58 3 c42 2 5498 1 5607 -2z
m-5549 -5797 l1 -123 -123 0 -124 0 -1 30 c0 17 0 53 0 80 0 28 0 69 0 93 l1
44 123 -1 122 -1 1 -122z m6154 -509 l0 -124 -125 0 -125 0 0 124 0 123 125 1
125 0 0 -124z"/>
<path d="M3437 6088 c-8 -18 -86 -220 -171 -448 -213 -567 -277 -687 -491
-929 -58 -66 -201 -184 -310 -257 -136 -90 -292 -166 -590 -285 -126 -50 -248
-100 -270 -110 -22 -10 -93 -40 -158 -67 -110 -45 -117 -49 -100 -64 10 -9
194 -82 408 -163 546 -205 617 -236 785 -348 284 -188 486 -444 654 -827 21
-47 44 -99 52 -116 7 -17 47 -116 88 -220 99 -251 163 -404 177 -421 10 -11
15 -11 30 3 11 10 19 22 19 28 0 6 23 72 51 146 240 635 270 711 311 794 170
338 419 595 748 768 81 43 349 158 655 283 262 107 310 126 313 130 8 8 -10
45 -22 45 -7 0 -127 43 -267 96 -140 53 -310 116 -379 141 -149 53 -338 142
-452 212 -368 224 -587 509 -796 1036 -70 176 -127 316 -148 365 -8 19 -34 80
-57 134 -23 55 -47 101 -53 103 -6 2 -18 -11 -27 -29z"/>
<path d="M4852 2744 c-5 -11 -40 -100 -77 -199 -104 -280 -157 -365 -295 -476
-73 -59 -159 -102 -373 -189 -98 -40 -175 -76 -170 -80 4 -5 53 -25 108 -45
324 -120 400 -158 498 -245 94 -85 142 -160 237 -375 4 -11 23 -56 40 -100 59
-146 63 -156 73 -152 5 1 44 96 88 211 88 235 138 323 233 418 74 72 163 128
291 182 50 21 104 43 120 51 17 7 65 27 107 45 43 17 80 35 83 40 2 4 -84 40
-192 81 -238 89 -332 141 -428 234 -110 106 -146 172 -292 535 -33 80 -39 87
-51 64z"/>
</g>
</svg>
