<svg width="365" height="209" viewBox="0 0 365 209" fill="none" xmlns="http://www.w3.org/2000/svg">
<path d="M18.1579 190.39C17.0901 189.424 16.7952 187.796 17.2556 186.256C17.7247 184.603 19.6325 184.036 21.0175 184.335C21.4297 184.415 21.7602 184.576 22.1257 184.771C22.3471 184.866 22.5646 184.999 22.8707 184.974C23.4046 184.968 23.5127 184.546 23.6596 184.121C23.9993 183.154 24.5162 182.361 24.778 181.439C25.0476 180.403 24.2193 180.282 23.3968 180.086C22.4225 179.902 21.4799 179.791 20.4428 179.913C19.7128 180.009 18.976 180.183 18.2314 180.468C16.6215 181.124 15.124 182.298 14.0626 183.737C13.1243 185.052 12.6668 186.555 12.4395 188.037C12.276 189.177 12.3013 190.34 12.7588 191.317C13.2503 192.366 14.173 193.23 14.9454 194.069C15.651 194.8 16.3557 195.532 17.1432 196.18C17.8542 196.837 18.6917 197.332 19.3989 198.026C20.4257 199.031 20.6554 201.492 19.7478 202.917C18.6747 204.507 16.3986 204.917 14.9429 204.547C14.1974 204.345 13.5516 203.835 12.935 203.433C12.5734 203.201 12.1217 203.124 11.819 203.6C11.6487 203.839 11.5523 204.11 11.4584 204.342C11.1177 205.31 10.707 206.206 10.5902 207.23C10.4627 208.405 12.6955 208.561 13.5233 208.682C17.2089 209.246 21.7791 208.199 24.012 204.374C24.4529 203.587 24.7814 202.771 24.998 201.927C25.0598 201.622 25.1182 201.354 25.141 201.052C25.4793 198.621 24.6403 196.661 23.2854 194.968C21.8278 193.133 19.9031 191.938 18.1579 190.39Z" fill="white"/>
<path d="M45.5085 178.063C44.8574 178.116 38.6163 178.623 36.0482 178.87C34.7848 178.972 33.7541 179.019 32.4907 179.121C31.5339 179.199 31.5139 179.952 31.3869 181.615C31.3056 182.673 31.1869 183.734 32.1052 183.66C32.6415 183.616 34.8237 183.439 35.4331 183.427C35.8156 183.396 36.0759 183.487 36.1202 183.897C36.1119 184.01 36.1416 184.121 36.1329 184.234C35.9246 186.955 34.7639 199.632 34.5804 203.027C34.5298 204.195 34.4398 205.367 34.3882 206.535C34.3478 207.064 34.3804 207.137 34.9162 207.093L38.3618 206.814C39.0894 206.754 39.029 205.557 39.0392 204.918L40.7737 183.744C40.817 183.177 41.0234 182.972 41.7889 182.91L45.1581 182.637C45.9626 182.571 45.8745 181.226 45.947 180.281C46.0108 179.45 46.4273 177.989 45.5085 178.063Z" fill="white"/>
<path d="M67.9044 176.28C66.8741 176.326 65.8371 176.448 64.798 176.608C64.3766 176.643 64.0033 177.049 63.9687 177.502C63.7288 181.127 63.5254 184.787 63.2066 188.456C62.9278 191.596 63.0835 195.039 61.6673 198.121C61.1247 199.254 60.0272 200.17 58.8018 200.269C55.7455 200.443 56.1344 196.843 56.1821 194.735C56.3052 190.144 57.0109 185.391 57.4786 180.771C57.5447 179.902 57.6114 179.032 57.716 178.16C57.7895 177.704 57.9093 177.131 57.2995 177.142L56.6099 177.198C55.6467 177.352 54.6987 177.316 53.7385 177.432C52.8139 177.582 52.4878 177.872 52.4187 178.779C52.2936 180.404 52.1281 182.07 52.004 183.695C51.712 187.513 51.4556 191.364 51.2424 195.137C51.1047 197.439 50.8662 200.05 51.8152 202.076C53.0241 204.682 56.0706 205.636 59.1094 205.202C61.1884 204.882 63.1434 204.198 64.7523 202.565C67.4844 199.676 67.3083 195.521 67.6095 192.079C68.0645 187.122 68.5327 182.502 68.9147 177.513C68.978 176.682 68.7444 176.25 67.9044 176.28Z" fill="white"/>
<path d="M86.6235 186.778C86.5836 187.795 86.5442 188.813 86.4658 189.833C86.096 194.67 82.9662 198.268 80.4394 198.473C78.7546 198.61 78.4787 198.745 78.5624 197.649C78.649 196.515 78.812 195.374 78.8987 194.242C78.8987 193.753 78.939 193.224 78.9799 192.695L79.3264 188.16C79.5464 185.287 79.7644 183.43 79.8345 181.02L79.8691 180.567C79.9688 179.77 80.0861 179.722 80.928 179.654C82.0415 179.526 82.8251 179.725 83.7536 180.026C84.6822 180.326 85.1543 181.114 85.5908 181.867C86.4298 183.338 86.6824 185.008 86.6235 186.778ZM85.8969 175.381C84.4914 174.858 82.8509 174.916 81.2785 175.081C79.6321 175.215 77.9535 175.276 76.295 175.561C75.8326 175.636 75.5854 175.882 75.4779 176.304C75.3664 176.764 75.2555 177.223 75.2233 177.638C75.1231 179.937 74.5235 186.785 74.5133 187.912C74.4729 188.93 74.2632 190.186 74.1848 191.207C74.0291 193.736 73.7945 196.308 73.6008 198.841C73.52 199.899 73.4032 200.923 73.3224 201.981C73.2353 203.115 72.7769 203.64 75.9164 203.385C78.7108 203.158 81.6381 202.695 84.3561 201.497C86.8722 200.429 88.575 198.075 89.8204 195.719C90.0871 195.21 90.3163 194.703 90.5451 194.196C91.059 192.952 91.2318 191.699 91.4415 190.443C91.8737 187.779 92.0022 185.101 91.5096 182.587C90.9193 179.368 89.0062 176.519 85.8969 175.381Z" fill="white"/>
<path d="M102.949 173.357C101.842 173.41 101.343 173.451 100.233 173.54C99.508 173.562 99.1878 173.776 99.1323 174.494C98.849 178.198 97.9331 188.676 97.8558 190.184C97.7793 191.693 97.4056 198.559 97.2133 200.077C97.134 200.61 97.1321 201.135 97.1301 201.661C97.1545 201.847 97.2542 202.027 97.5604 202.001C98.8296 201.823 100.017 201.727 101.283 201.586C101.745 201.511 102.136 201.367 102.366 200.86C102.425 200.592 102.839 193.685 102.978 191.871C103.192 187.572 103.581 182.996 103.946 178.722C104.047 177.399 104.08 175.97 104.181 174.646C104.291 173.211 103.711 173.333 102.949 173.357Z" fill="white"/>
<path d="M125.569 188.532C125.027 190.643 124.047 193.501 121.974 194.721C121.098 195.244 120.118 195.624 119.158 195.739C118.203 195.779 117.308 195.552 116.5 195.166C114.59 194.27 114.038 191.536 113.815 189.488C113.608 187.214 113.941 184.858 114.577 182.515C115.157 180.403 116.232 178.287 118.126 176.894C118.45 176.642 118.771 176.428 119.163 176.284C119.677 176.016 120.182 175.901 120.679 175.861C121.177 175.82 121.707 175.851 122.187 176.038C122.524 176.123 122.853 176.284 123.142 176.486C124.809 177.59 125.571 179.556 125.871 181.597C126.154 183.866 126.128 186.196 125.569 188.532ZM120.983 171.892C116.727 172.312 112.602 175.502 110.876 179.662C109.893 182.07 109.508 184.618 109.317 187.112C109.157 189.19 109.349 191.166 109.769 193.122C110.238 195.45 111.261 197.508 113.182 198.742C114.669 199.709 116.221 200.298 118.084 200.334C118.352 200.312 118.579 200.331 118.808 200.313C119.076 200.291 119.309 200.234 119.577 200.212C121.466 199.871 123.13 199.022 124.746 197.801C126.92 196.235 128.234 193.987 129.105 191.551C129.794 189.504 130.331 187.47 130.489 185.391C130.68 182.897 130.682 180.38 130.058 178.103C128.912 174.176 125.227 171.622 120.983 171.892Z" fill="white"/>
<path d="M142.297 180.3C141.229 179.335 140.935 177.706 141.395 176.167C141.865 174.513 143.772 173.946 145.157 174.246C145.57 174.325 145.899 174.486 146.265 174.681C146.485 174.776 146.704 174.909 147.01 174.884C147.544 174.878 147.652 174.456 147.799 174.031C148.139 173.065 148.656 172.271 148.917 171.349C149.187 170.313 148.359 170.192 147.537 169.996C146.561 169.813 145.619 169.702 144.582 169.823C143.852 169.92 143.116 170.093 142.371 170.378C140.76 171.035 139.263 172.208 138.201 173.647C137.264 174.963 136.807 176.465 136.579 177.948C136.416 179.088 136.441 180.25 136.899 181.227C137.389 182.276 138.312 183.14 139.085 183.979C139.79 184.71 140.495 185.442 141.283 186.091C141.994 186.747 142.831 187.243 143.539 187.937C144.565 188.942 144.795 191.402 143.887 192.828C142.814 194.418 140.538 194.827 139.082 194.458C138.337 194.256 137.691 193.745 137.075 193.344C136.712 193.11 136.262 193.034 135.958 193.51C135.788 193.749 135.691 194.02 135.598 194.253C135.257 195.22 134.847 196.117 134.73 197.141C134.602 198.315 136.835 198.472 137.663 198.592C141.348 199.156 145.918 198.11 148.151 194.284C148.592 193.497 148.92 192.682 149.138 191.837C149.199 191.533 149.258 191.265 149.281 190.963C149.619 188.531 148.78 186.571 147.425 184.879C145.968 183.044 144.042 181.849 142.297 180.3Z" fill="white"/>
<path d="M53.7927 116.859C51.7049 117.025 51.4733 114.251 51.4733 111.225C51.4733 97.496 51.357 83.1943 51.357 70.047C51.357 67.6034 51.7049 66.4121 53.7927 66.2466C62.4919 65.557 63.072 74.2372 63.072 90.5264C63.072 109.142 62.4919 116.169 53.7927 116.859ZM56.1127 50.3555L38.7143 51.7352C31.755 52.2866 31.755 56.9406 31.755 61.5951V125.587C31.755 130.241 31.755 134.895 38.7143 134.343L56.1127 132.964C82.7898 130.849 85.1097 113.212 85.1097 89.3608C85.1097 64.3452 81.6301 48.3324 56.1127 50.3555Z" fill="white"/>
<path d="M115.504 93.35C111.793 93.6445 110.981 93.7087 110.981 91.8472C110.981 91.3819 110.98 90.8004 111.096 90.0927C112.257 78.4819 113.068 64.4556 115.504 64.2629C118.056 64.06 118.519 78.1018 119.912 89.3939C120.027 90.1993 120.027 90.7809 120.027 91.2462C120.027 92.9913 119.1 93.0648 115.504 93.35ZM124.435 44.9383L106.573 46.3546C101.933 46.7225 99.6134 50.3973 98.6854 56.2884C89.6382 111.341 86.855 117.728 86.855 124.709C86.855 130.062 90.4505 130.242 96.4817 129.763L101.933 129.331C108.893 128.78 106.225 111.538 110.864 111.171L120.143 110.435C124.783 110.067 121.187 127.805 128.378 127.234L134.526 126.747C141.137 126.223 144.733 125.472 144.733 120.12C144.733 113.139 140.441 100.681 132.554 53.603C131.395 47.8773 129.074 44.5704 124.435 44.9383Z" fill="white"/>
<path d="M193.555 42.4832C193.555 39.4585 192.279 39.5592 188.799 39.8357L178.476 40.6538C174.301 40.9852 172.909 46.0986 171.865 50.4864C170.937 54.2829 167.457 67.7066 167.342 68.7627C167.225 69.5866 166.761 69.9725 166.181 70.0183C165.717 70.0548 165.138 69.6357 165.021 68.8303C164.79 67.8015 160.962 55.0742 160.15 51.4149C159.222 47.1834 158.062 42.2724 154.351 42.5669L141.128 43.6151C140.316 43.6794 137.764 43.8818 137.764 46.907C137.764 50.1647 144.608 67.3075 146.928 72.3591L147.275 73.1461C149.363 77.8672 155.395 91.9333 155.395 98.2162V115.784C155.395 120.438 155.395 125.093 162.353 124.541L168.153 124.081C175.112 123.529 175.112 119.225 175.112 114.687V104.332C175.112 94.0927 175.461 92.9013 179.056 83.5413C181.492 77.2978 183.464 71.7892 184.508 69.3798C186.827 64.0761 193.555 45.7414 193.555 42.4832Z" fill="white"/>
<path d="M208.172 82.2288L202.372 82.6882C195.413 83.2401 195.413 87.8941 195.413 92.548V135.481C195.413 138.507 195.529 140.824 195.529 142.57C195.529 147.224 194.949 149.131 190.657 149.471C189.613 149.554 188.338 149.539 186.946 149.65C184.742 149.824 183.351 150.865 183.351 153.309V160.871C183.351 166.806 187.642 167.047 196.457 166.348C207.824 165.446 215.131 160.911 215.131 146.135V90.9849C215.131 86.3309 215.131 81.6769 208.172 82.2288Z" fill="white"/>
<path d="M253.41 137.399C253.41 140.889 253.41 145.544 247.61 146.003C241.811 146.463 241.811 141.809 241.811 138.319V101.668C241.811 98.7594 241.811 95.269 247.61 94.8086C253.41 94.3492 253.41 97.8396 253.41 100.748V137.399ZM248.191 78.4742C223.717 80.4145 221.977 94.2816 221.977 113.014C221.977 116.039 222.093 119.172 222.093 122.429C222.093 125.687 221.977 128.838 221.977 131.979C221.977 150.595 223.717 164.187 248.191 162.247C270.576 160.471 273.476 146.861 273.476 128.478C273.476 122.311 273.128 115.474 273.128 108.493C273.128 89.9936 271.504 76.6253 248.191 78.4742Z" fill="white"/>
<path d="M320.274 131.729C319.368 132.105 318.46 132.476 317.553 132.85C316.721 133.192 315.891 133.538 315.066 133.896C311.997 135.228 309.88 137.484 308.689 140.607C308.05 142.281 307.427 143.961 306.795 145.638C306.757 145.74 306.735 145.853 306.648 145.947C306.624 145.973 306.599 145.998 306.564 146.02C306.527 146.001 306.501 145.974 306.475 145.947C306.359 145.832 306.322 145.66 306.256 145.511C305.354 143.448 304.676 141.283 303.591 139.304C302.237 136.832 300.19 135.11 297.555 134.1C296.715 133.777 295.872 133.461 295.029 133.144C294.195 132.83 293.361 132.515 292.527 132.198C292.353 132.131 292.147 132.108 291.97 131.866C292.684 131.564 293.378 131.275 294.067 130.977C294.386 130.839 294.707 130.708 295.029 130.58C296.322 130.065 297.633 129.591 298.843 128.892C301.336 127.453 303.06 125.363 304.047 122.655C304.655 120.988 305.295 119.334 305.921 117.674C305.964 117.559 305.994 117.438 306.186 117.316C306.775 118.742 307.37 120.106 307.904 121.494C308.69 123.536 309.676 125.434 311.318 126.942C312.747 128.254 314.424 129.095 316.229 129.737C316.673 129.895 317.112 130.062 317.553 130.227C318.458 130.566 319.36 130.911 320.263 131.256C320.397 131.308 320.629 131.296 320.611 131.51C320.598 131.664 320.401 131.676 320.274 131.729ZM305.726 90.2022C310.366 89.8343 311.526 93.5817 311.526 97.6541C311.526 101.727 310.366 105.541 305.726 105.909C299.927 106.369 299.927 104.391 299.927 98.5739C299.927 92.7563 299.927 90.6617 305.726 90.2022ZM322.893 112.111C322.545 112.022 322.429 111.799 322.429 111.566C322.429 111.334 322.545 111.092 322.893 110.947C329.272 107.067 332.056 99.9823 332.056 93.1179C332.056 82.4132 327.069 72.8025 312.106 73.989L287.168 75.9663C280.208 76.5182 280.208 81.1721 280.208 85.8261V149.818C280.208 154.472 280.208 159.126 287.168 158.575L313.034 156.524C320.573 155.927 325.444 155.308 331.128 144.385C333.099 140.506 334.26 135.876 334.26 131.339C334.26 123.194 331.244 114.241 322.893 112.111Z" fill="white"/>
<path fill-rule="evenodd" clip-rule="evenodd" d="M220.095 0.412298H205.86V4.60072L14.235 20.6736V16.8373H0V31.0723H4.38V159.917H0V174.152H14.235V171.313L154.395 160.806V164.662H158.775V192.767H154.395V207.002H168.63V202.309L350.765 186.564V190.212H365V175.977H360.985V46.0373H365V31.8023H350.765V36.1407L220.095 47.0002V42.7523H216.08V14.6473H220.095V0.412298ZM164.615 164.662V192.767H168.63V196.447L350.765 180.702V175.977H355.145V46.0373H350.765V42.0008L220.095 52.8603V56.9873H205.86V42.7523H210.24V14.6473H205.86V10.4612L14.235 26.5342V31.0723H10.22V159.917H14.235V165.457L154.395 154.95V150.427H168.63V164.662H164.615ZM216.08 4.4273H209.875V10.6323H216.08V4.4273ZM10.22 163.932H4.015V170.137H10.22V163.932ZM4.015 20.8523H10.22V27.0573H4.015V20.8523ZM209.875 46.7673H216.08V52.9723H209.875V46.7673ZM360.985 35.8173H354.78V42.0223H360.985V35.8173ZM354.78 179.992H360.985V186.197H354.78V179.992ZM164.615 196.782H158.41V202.987H164.615V196.782ZM158.41 154.442H164.615V160.647H158.41V154.442Z" fill="white"/>
</svg>
