<svg width="50" height="51" viewBox="0 0 50 51" fill="none" xmlns="http://www.w3.org/2000/svg">
<path d="M39.9287 21.7776C38.955 22.1826 37.9786 22.5818 37.0033 22.9841C36.1092 23.3529 35.2165 23.7248 34.3291 24.1104C31.0302 25.5442 28.7536 27.9723 27.4733 31.3339C26.7868 33.1365 26.1172 34.9448 25.4375 36.7495C25.3962 36.859 25.3726 36.9811 25.2794 37.0827C25.2538 37.1104 25.2266 37.1372 25.189 37.1607C25.1492 37.1403 25.1215 37.1115 25.0932 37.0827C24.9681 36.958 24.9284 36.7731 24.8583 36.6128C23.8877 34.3921 23.1594 32.062 21.9931 29.932C20.5364 27.2708 18.3363 25.4169 15.5035 24.3293C14.5999 23.9826 13.6937 23.6421 12.7875 23.301C11.8907 22.9631 10.9938 22.6242 10.0981 22.2826C9.91024 22.2109 9.68895 22.1857 9.49902 21.9248C10.2666 21.5995 11.0127 21.2894 11.7536 20.9678C12.0958 20.8195 12.4411 20.6791 12.7875 20.5408C14.1772 19.9866 15.5872 19.4763 16.888 18.7241C19.5685 17.1745 21.4217 14.925 22.4833 12.0103C23.1363 10.2161 23.8249 8.43495 24.4972 6.64807C24.5438 6.52497 24.5762 6.394 24.7824 6.26303C25.4155 7.79846 26.0554 9.26684 26.6299 10.7609C27.4749 12.958 28.5344 15.001 30.2998 16.6244C31.836 18.0373 33.639 18.9425 35.5802 19.6335C36.0568 19.8032 36.5298 19.9829 37.0033 20.1605C37.9765 20.5256 38.9466 20.8976 39.9172 21.269C40.0616 21.3245 40.3106 21.3119 40.2913 21.5419C40.2771 21.7074 40.0653 21.7205 39.9287 21.7776Z" fill="#252525"/>
<path d="M41.3859 37.1896C40.9601 37.3675 40.5331 37.5428 40.1067 37.7195C39.7156 37.8814 39.3253 38.0448 38.9373 38.2141C37.4947 38.8438 36.4992 39.9102 35.9393 41.3866C35.6391 42.1783 35.3463 42.9725 35.049 43.7651C35.031 43.8132 35.0207 43.8668 34.9799 43.9114C34.9687 43.9236 34.9568 43.9354 34.9404 43.9457C34.923 43.9367 34.9108 43.9241 34.8985 43.9114C34.8438 43.8567 34.8264 43.7755 34.7958 43.7051C34.3713 42.7298 34.0529 41.7064 33.5429 40.7709C32.9059 39.6022 31.9438 38.7879 30.705 38.3103C30.3099 38.158 29.9136 38.0084 29.5173 37.8587C29.1252 37.7103 28.733 37.5614 28.3413 37.4114C28.2592 37.3799 28.1624 37.3688 28.0793 37.2543C28.415 37.1114 28.7413 36.9752 29.0652 36.8339C29.2149 36.7688 29.3659 36.7072 29.5173 36.6464C30.125 36.403 30.7417 36.1789 31.3104 35.8485C32.4826 35.168 33.293 34.18 33.7572 32.8999C34.0428 32.1119 34.3439 31.3297 34.6379 30.5449C34.6582 30.4908 34.6724 30.4333 34.7626 30.3758C35.0394 31.0501 35.3192 31.695 35.5705 32.3512C35.94 33.3161 36.4033 34.2134 37.1753 34.9264C37.847 35.5469 38.6355 35.9445 39.4843 36.2479C39.6928 36.3225 39.8996 36.4014 40.1067 36.4794C40.5322 36.6397 40.9564 36.8031 41.3808 36.9662C41.444 36.9906 41.5529 36.9851 41.5444 37.0861C41.5383 37.1588 41.4456 37.1645 41.3859 37.1896Z" fill="#252525"/>
<path fill-rule="evenodd" clip-rule="evenodd" d="M0 0H4.07098L4.07098 1.25261H44.6764V0H48.7474V4.07098H47.6137L48.7368 46.1378H50V50.2088H45.929V49.0416L6.05428 45.426V46.5553H1.9833V42.4843H3.30377L1.48419 4.07098H0V0ZM44.6764 2.92275H4.07098L4.07098 4.07098H3.15621L4.97579 42.4843H6.05428V43.749L45.929 47.3646V46.1378H47.0661L45.9429 4.07098H44.6764V2.92275ZM1.14823 1.14822H2.92276V2.92275H1.14823V1.14822ZM3.13152 43.6326H4.90605V45.4071H3.13152V43.6326ZM48.8518 47.286H47.0772V49.0605H48.8518V47.286ZM45.8246 1.14822H47.5992V2.92275H45.8246V1.14822Z" fill="#252525"/>
</svg>
