<svg width="365" height="209" viewBox="0 0 365 209" fill="none" xmlns="http://www.w3.org/2000/svg">
<path d="M18.1579 189.978C17.0901 189.012 16.7952 187.383 17.2556 185.844C17.7247 184.191 19.6325 183.623 21.0175 183.923C21.4297 184.002 21.7602 184.164 22.1257 184.359C22.3471 184.454 22.5646 184.586 22.8707 184.562C23.4046 184.556 23.5127 184.134 23.6596 183.709C23.9993 182.742 24.5162 181.948 24.778 181.027C25.0476 179.99 24.2193 179.87 23.3968 179.674C22.4225 179.49 21.4799 179.379 20.4428 179.5C19.7128 179.597 18.976 179.77 18.2314 180.056C16.6215 180.712 15.124 181.886 14.0626 183.325C13.1243 184.64 12.6668 186.142 12.4395 187.625C12.276 188.765 12.3013 189.928 12.7588 190.904C13.2503 191.954 14.173 192.817 14.9454 193.656C15.651 194.387 16.3557 195.119 17.1432 195.768C17.8542 196.425 18.6917 196.92 19.3989 197.614C20.4257 198.619 20.6554 201.08 19.7478 202.505C18.6747 204.095 16.3986 204.505 14.9429 204.135C14.1974 203.933 13.5516 203.422 12.935 203.021C12.5734 202.788 12.1217 202.712 11.819 203.187C11.6487 203.427 11.5523 203.697 11.4584 203.93C11.1177 204.898 10.707 205.794 10.5902 206.818C10.4627 207.993 12.6955 208.149 13.5233 208.27C17.2089 208.834 21.7791 207.786 24.012 203.962C24.4529 203.175 24.7814 202.359 24.998 201.515C25.0598 201.21 25.1182 200.942 25.141 200.64C25.4793 198.208 24.6403 196.248 23.2854 194.556C21.8278 192.721 19.9031 191.526 18.1579 189.978Z" fill="#252525"/>
<path d="M45.5085 177.651C44.8574 177.704 38.6163 178.211 36.0482 178.457C34.7848 178.56 33.7541 178.606 32.4907 178.709C31.5339 178.787 31.5139 179.539 31.3869 181.203C31.3056 182.261 31.1869 183.322 32.1052 183.248C32.6415 183.204 34.8237 183.027 35.4331 183.015C35.8156 182.983 36.0759 183.075 36.1202 183.485C36.1119 183.598 36.1416 183.709 36.1329 183.821C35.9246 186.543 34.7639 199.22 34.5804 202.615C34.5298 203.783 34.4398 204.954 34.3882 206.123C34.3478 206.652 34.3804 206.724 34.9162 206.681L38.3618 206.401C39.0894 206.341 39.029 205.145 39.0392 204.505L40.7737 183.332C40.817 182.765 41.0234 182.56 41.7889 182.498L45.1581 182.225C45.9626 182.159 45.8745 180.814 45.947 179.869C46.0108 179.037 46.4273 177.577 45.5085 177.651Z" fill="#252525"/>
<path d="M67.9044 175.868C66.8741 175.914 65.8371 176.036 64.798 176.196C64.3766 176.23 64.0033 176.636 63.9687 177.09C63.7288 180.715 63.5254 184.375 63.2066 188.044C62.9278 191.184 63.0835 194.626 61.6673 197.708C61.1247 198.841 60.0272 199.757 58.8018 199.857C55.7455 200.031 56.1344 196.43 56.1821 194.323C56.3052 189.731 57.0109 184.979 57.4786 180.359C57.5447 179.49 57.6114 178.62 57.716 177.748C57.7895 177.291 57.9093 176.719 57.2995 176.73L56.6099 176.786C55.6467 176.94 54.6987 176.903 53.7385 177.019C52.8139 177.17 52.4878 177.46 52.4187 178.366C52.2936 179.992 52.1281 181.658 52.004 183.283C51.712 187.101 51.4556 190.952 51.2424 194.725C51.1047 197.027 50.8662 199.638 51.8152 201.664C53.0241 204.27 56.0706 205.224 59.1094 204.789C61.1884 204.47 63.1434 203.786 64.7523 202.153C67.4844 199.263 67.3083 195.109 67.6095 191.666C68.0645 186.709 68.5327 182.09 68.9147 177.101C68.978 176.269 68.7444 175.838 67.9044 175.868Z" fill="#252525"/>
<path d="M86.6235 186.366C86.5836 187.383 86.5442 188.4 86.4658 189.42C86.096 194.258 82.9662 197.855 80.4394 198.06C78.7546 198.198 78.4787 198.333 78.5624 197.237C78.649 196.103 78.812 194.962 78.8987 193.829C78.8987 193.341 78.939 192.812 78.9799 192.283L79.3264 187.747C79.5464 184.875 79.7644 183.017 79.8345 180.607L79.8691 180.154C79.9688 179.357 80.0861 179.31 80.928 179.242C82.0415 179.114 82.8251 179.312 83.7536 179.614C84.6822 179.913 85.1543 180.701 85.5908 181.454C86.4298 182.925 86.6824 184.596 86.6235 186.366ZM85.8969 174.969C84.4914 174.445 82.8509 174.504 81.2785 174.669C79.6321 174.803 77.9535 174.864 76.295 175.149C75.8326 175.223 75.5854 175.47 75.4779 175.892C75.3664 176.352 75.2555 176.811 75.2233 177.226C75.1231 179.525 74.5235 186.372 74.5133 187.5C74.4729 188.517 74.2632 189.773 74.1848 190.794C74.0291 193.324 73.7945 195.896 73.6008 198.429C73.52 199.486 73.4032 200.511 73.3224 201.569C73.2353 202.703 72.7769 203.228 75.9164 202.973C78.7108 202.745 81.6381 202.283 84.3561 201.085C86.8722 200.017 88.575 197.662 89.8204 195.307C90.0871 194.798 90.3163 194.291 90.5451 193.784C91.059 192.54 91.2318 191.287 91.4415 190.03C91.8737 187.367 92.0022 184.689 91.5096 182.175C90.9193 178.955 89.0062 176.106 85.8969 174.969Z" fill="#252525"/>
<path d="M102.949 172.945C101.842 172.997 101.343 173.038 100.233 173.128C99.508 173.15 99.1878 173.363 99.1323 174.081C98.849 177.785 97.9331 188.263 97.8558 189.772C97.7793 191.281 97.4056 198.146 97.2133 199.665C97.134 200.197 97.1321 200.722 97.1301 201.248C97.1545 201.435 97.2542 201.614 97.5604 201.589C98.8296 201.411 100.017 201.315 101.283 201.174C101.745 201.099 102.136 200.955 102.366 200.448C102.425 200.18 102.839 193.273 102.978 191.459C103.192 187.16 103.581 182.583 103.946 178.309C104.047 176.987 104.08 175.557 104.181 174.234C104.291 172.798 103.711 172.921 102.949 172.945Z" fill="#252525"/>
<path d="M125.569 188.12C125.027 190.231 124.047 193.089 121.974 194.309C121.098 194.831 120.118 195.211 119.158 195.327C118.203 195.367 117.308 195.14 116.5 194.754C114.59 193.857 114.038 191.124 113.815 189.075C113.608 186.802 113.941 184.446 114.577 182.103C115.157 179.99 116.232 177.875 118.126 176.482C118.45 176.23 118.771 176.016 119.163 175.871C119.677 175.604 120.182 175.489 120.679 175.448C121.177 175.408 121.707 175.439 122.187 175.625C122.524 175.711 122.853 175.872 123.142 176.074C124.809 177.178 125.571 179.144 125.871 181.185C126.154 183.454 126.128 185.784 125.569 188.12ZM120.983 171.48C116.727 171.9 112.602 175.09 110.876 179.25C109.893 181.658 109.508 184.205 109.317 186.7C109.157 188.778 109.349 190.754 109.769 192.709C110.238 195.038 111.261 197.095 113.182 198.329C114.669 199.297 116.221 199.885 118.084 199.921C118.352 199.9 118.579 199.919 118.808 199.9C119.076 199.879 119.309 199.822 119.577 199.8C121.466 199.459 123.13 198.61 124.746 197.389C126.92 195.823 128.234 193.575 129.105 191.138C129.794 189.092 130.331 187.057 130.489 184.979C130.68 182.485 130.682 179.968 130.058 177.69C128.912 173.764 125.227 171.209 120.983 171.48Z" fill="#252525"/>
<path d="M142.297 179.888C141.229 178.923 140.935 177.294 141.395 175.754C141.865 174.101 143.772 173.534 145.157 173.834C145.57 173.913 145.899 174.074 146.265 174.269C146.485 174.364 146.704 174.497 147.01 174.472C147.544 174.466 147.652 174.044 147.799 173.619C148.139 172.652 148.656 171.859 148.917 170.937C149.187 169.901 148.359 169.78 147.537 169.584C146.561 169.4 145.619 169.29 144.582 169.411C143.852 169.508 143.116 169.681 142.371 169.966C140.76 170.623 139.263 171.796 138.201 173.234C137.264 174.55 136.807 176.053 136.579 177.536C136.416 178.675 136.441 179.838 136.899 180.815C137.389 181.864 138.312 182.728 139.085 183.567C139.79 184.298 140.495 185.029 141.283 185.679C141.994 186.335 142.831 186.83 143.539 187.524C144.565 188.529 144.795 190.99 143.887 192.415C142.814 194.006 140.538 194.415 139.082 194.046C138.337 193.844 137.691 193.333 137.075 192.931C136.712 192.698 136.262 192.622 135.958 193.098C135.788 193.337 135.691 193.607 135.598 193.84C135.257 194.807 134.847 195.704 134.73 196.728C134.602 197.903 136.835 198.059 137.663 198.18C141.348 198.744 145.918 197.697 148.151 193.872C148.592 193.085 148.92 192.269 149.138 191.425C149.199 191.12 149.258 190.852 149.281 190.551C149.619 188.119 148.78 186.159 147.425 184.466C145.968 182.631 144.042 181.436 142.297 179.888Z" fill="#252525"/>
<path d="M53.7927 116.447C51.7049 116.613 51.4733 113.839 51.4733 110.813C51.4733 97.0837 51.357 82.782 51.357 69.6347C51.357 67.1911 51.7049 65.9998 53.7927 65.8343C62.4919 65.1447 63.072 73.8249 63.072 90.1141C63.072 108.73 62.4919 115.757 53.7927 116.447ZM56.1127 49.9432L38.7143 51.3229C31.755 51.8743 31.755 56.5283 31.755 61.1828V125.175C31.755 129.829 31.755 134.483 38.7143 133.931L56.1127 132.552C82.7898 130.437 85.1097 112.8 85.1097 88.9485C85.1097 63.9329 81.6301 47.9201 56.1127 49.9432Z" fill="#252525"/>
<path d="M115.504 92.9377C111.793 93.2322 110.981 93.2964 110.981 91.4349C110.981 90.9696 110.98 90.3881 111.096 89.6805C112.257 78.0696 113.068 64.0433 115.504 63.8506C118.056 63.6477 118.519 77.6895 119.912 88.9816C120.027 89.787 120.027 90.3686 120.027 90.8339C120.027 92.5791 119.1 92.6525 115.504 92.9377ZM124.435 44.5261L106.573 45.9423C101.933 46.3102 99.6134 49.985 98.6854 55.8761C89.6382 110.929 86.855 117.316 86.855 124.297C86.855 129.649 90.4505 129.829 96.4817 129.351L101.933 128.919C108.893 128.368 106.225 111.126 110.864 110.758L120.143 110.023C124.783 109.655 121.187 127.392 128.378 126.822L134.526 126.335C141.137 125.811 144.733 125.06 144.733 119.708C144.733 112.727 140.441 100.268 132.554 53.1907C131.395 47.465 129.074 44.1581 124.435 44.5261Z" fill="#252525"/>
<path d="M193.555 42.0709C193.555 39.0462 192.279 39.147 188.799 39.4234L178.476 40.2415C174.301 40.5729 172.909 45.6863 171.865 50.0741C170.937 53.8706 167.457 67.2943 167.342 68.3504C167.225 69.1743 166.761 69.5602 166.181 69.606C165.717 69.6425 165.138 69.2235 165.021 68.418C164.79 67.3892 160.962 54.6619 160.15 51.0027C159.222 46.7711 158.062 41.8601 154.351 42.1546L141.128 43.2028C140.316 43.2671 137.764 43.4695 137.764 46.4947C137.764 49.7524 144.608 66.8952 146.928 71.9468L147.275 72.7338C149.363 77.4549 155.395 91.5211 155.395 97.8039V115.372C155.395 120.026 155.395 124.681 162.353 124.128L168.153 123.669C175.112 123.117 175.112 118.812 175.112 114.275V103.919C175.112 93.6804 175.461 92.489 179.056 83.129C181.492 76.8855 183.464 71.377 184.508 68.9675C186.827 63.6638 193.555 45.3291 193.555 42.0709Z" fill="#252525"/>
<path d="M208.172 81.8165L202.372 82.2759C195.413 82.8278 195.413 87.4818 195.413 92.1357V135.069C195.413 138.095 195.529 140.412 195.529 142.157C195.529 146.811 194.949 148.719 190.657 149.059C189.613 149.142 188.338 149.127 186.946 149.237C184.742 149.412 183.351 150.453 183.351 152.897V160.459C183.351 166.393 187.642 166.635 196.457 165.936C207.824 165.034 215.131 160.499 215.131 145.723V90.5726C215.131 85.9186 215.131 81.2646 208.172 81.8165Z" fill="#252525"/>
<path d="M253.41 136.986C253.41 140.477 253.41 145.131 247.61 145.591C241.811 146.051 241.811 141.397 241.811 137.906V101.256C241.811 98.3471 241.811 94.8567 247.61 94.3963C253.41 93.9369 253.41 97.4273 253.41 100.336V136.986ZM248.191 78.0618C223.717 80.0022 221.977 93.8693 221.977 112.602C221.977 115.627 222.093 118.759 222.093 122.017C222.093 125.275 221.977 128.426 221.977 131.567C221.977 150.183 223.717 163.775 248.191 161.834C270.576 160.059 273.476 146.449 273.476 128.065C273.476 121.899 273.128 115.062 273.128 108.08C273.128 89.5812 271.504 76.213 248.191 78.0618Z" fill="#252525"/>
<path d="M320.274 131.317C319.368 131.693 318.46 132.064 317.553 132.438C316.721 132.78 315.891 133.126 315.066 133.484C311.997 134.816 309.88 137.072 308.689 140.195C308.05 141.869 307.427 143.549 306.795 145.226C306.757 145.327 306.735 145.441 306.648 145.535C306.624 145.561 306.599 145.586 306.564 145.608C306.527 145.589 306.501 145.562 306.475 145.535C306.359 145.419 306.322 145.248 306.256 145.099C305.354 143.036 304.676 140.871 303.591 138.892C302.237 136.42 300.19 134.698 297.555 133.687C296.715 133.365 295.872 133.049 295.029 132.732C294.195 132.418 293.361 132.103 292.527 131.786C292.353 131.719 292.147 131.696 291.97 131.454C292.684 131.151 293.378 130.863 294.067 130.564C294.386 130.427 294.707 130.296 295.029 130.168C296.322 129.653 297.633 129.179 298.843 128.48C301.336 127.04 303.06 124.951 304.047 122.243C304.655 120.576 305.295 118.921 305.921 117.261C305.964 117.147 305.994 117.025 306.186 116.904C306.775 118.33 307.37 119.694 307.904 121.082C308.69 123.123 309.676 125.021 311.318 126.529C312.747 127.842 314.424 128.683 316.229 129.325C316.673 129.483 317.112 129.649 317.553 129.814C318.458 130.154 319.36 130.499 320.263 130.844C320.397 130.896 320.629 130.884 320.611 131.098C320.598 131.252 320.401 131.264 320.274 131.317ZM305.726 89.79C310.366 89.4221 311.526 93.1694 311.526 97.2418C311.526 101.314 310.366 105.129 305.726 105.497C299.927 105.957 299.927 103.979 299.927 98.1616C299.927 92.344 299.927 90.2494 305.726 89.79ZM322.893 111.699C322.545 111.61 322.429 111.386 322.429 111.154C322.429 110.922 322.545 110.68 322.893 110.535C329.272 106.655 332.056 99.57 332.056 92.7056C332.056 82.0009 327.069 72.3902 312.106 73.5767L287.168 75.554C280.208 76.1059 280.208 80.7599 280.208 85.4139V149.406C280.208 154.06 280.208 158.714 287.168 158.163L313.034 156.112C320.573 155.514 325.444 154.895 331.128 143.973C333.099 140.093 334.26 135.464 334.26 130.926C334.26 122.782 331.244 113.829 322.893 111.699Z" fill="#252525"/>
<path fill-rule="evenodd" clip-rule="evenodd" d="M220.095 5.18799e-06H205.86V4.18843L14.235 20.2614V16.425H0V30.66H4.38V159.505H0V173.74H14.235V170.901L154.395 160.394V164.25H158.775V192.355H154.395V206.59H168.63V201.896L350.765 186.152V189.8H365V175.565H360.985V45.625H365V31.39H350.765V35.7284L220.095 46.5879V42.34H216.08V14.235H220.095V5.18799e-06ZM164.615 164.25V192.355H168.63V196.035L350.765 180.29V175.565H355.145V45.625H350.765V41.5885L220.095 52.448V56.575H205.86V42.34H210.24V14.235H205.86V10.0489L14.235 26.1219V30.66H10.22V159.505H14.235V165.044L154.395 154.537V150.015H168.63V164.25H164.615ZM216.08 4.015H209.875V10.22H216.08V4.015ZM10.22 163.52H4.015V169.725H10.22V163.52ZM4.015 20.44H10.22V26.645H4.015V20.44ZM209.875 46.355H216.08V52.56H209.875V46.355ZM360.985 35.405H354.78V41.61H360.985V35.405ZM354.78 179.58H360.985V185.785H354.78V179.58ZM164.615 196.37H158.41V202.575H164.615V196.37ZM158.41 154.03H164.615V160.235H158.41V154.03Z" fill="#252525"/>
</svg>
