<svg width="50" height="51" viewBox="0 0 50 51" fill="none" xmlns="http://www.w3.org/2000/svg">
<path d="M39.9287 21.9864C38.955 22.3913 37.9786 22.7905 37.0033 23.1929C36.1092 23.5616 35.2165 23.9336 34.3291 24.3191C31.0302 25.753 28.7536 28.181 27.4733 31.5426C26.7868 33.3452 26.1172 35.1536 25.4375 36.9583C25.3962 37.0678 25.3726 37.1898 25.2794 37.2915C25.2538 37.3192 25.2266 37.3459 25.189 37.3695C25.1492 37.3491 25.1215 37.3203 25.0932 37.2915C24.9681 37.1668 24.9284 36.9819 24.8583 36.8216C23.8877 34.6009 23.1594 32.2708 21.9931 30.1408C20.5364 27.4796 18.3363 25.6257 15.5035 24.5381C14.5999 24.1913 13.6937 23.8508 12.7875 23.5098C11.8907 23.1719 10.9938 22.833 10.0981 22.4914C9.91024 22.4196 9.68895 22.3945 9.49902 22.1336C10.2666 21.8083 11.0127 21.4982 11.7536 21.1765C12.0958 21.0283 12.4411 20.8879 12.7875 20.7496C14.1772 20.1953 15.5872 19.6851 16.888 18.9328C19.5685 17.3833 21.4217 15.1338 22.4833 12.2191C23.1363 10.4249 23.8249 8.64372 24.4972 6.85684C24.5438 6.73374 24.5762 6.60277 24.7824 6.4718C25.4155 8.00723 26.0554 9.47561 26.6299 10.9697C27.4749 13.1667 28.5344 15.2098 30.2998 16.8332C31.836 18.246 33.639 19.1513 35.5802 19.8423C36.0568 20.012 36.5298 20.1917 37.0033 20.3692C37.9765 20.7344 38.9466 21.1063 39.9172 21.4777C40.0616 21.5333 40.3106 21.5207 40.2913 21.7507C40.2771 21.9162 40.0653 21.9293 39.9287 21.9864Z" fill="white"/>
<path d="M41.3859 37.3984C40.9601 37.5762 40.5331 37.7516 40.1067 37.9282C39.7156 38.0902 39.3253 38.2536 38.9373 38.4229C37.4947 39.0526 36.4992 40.119 35.9393 41.5954C35.6391 42.3871 35.3463 43.1813 35.049 43.9739C35.031 44.022 35.0207 44.0756 34.9799 44.1202C34.9687 44.1324 34.9568 44.1441 34.9404 44.1545C34.923 44.1455 34.9108 44.1329 34.8985 44.1202C34.8438 44.0654 34.8264 43.9842 34.7958 43.9138C34.3713 42.9385 34.0529 41.9152 33.5429 40.9797C32.9059 39.8109 31.9438 38.9967 30.705 38.5191C30.3099 38.3668 29.9136 38.2172 29.5173 38.0674C29.1252 37.919 28.733 37.7702 28.3413 37.6202C28.2592 37.5887 28.1624 37.5776 28.0793 37.463C28.415 37.3202 28.7413 37.184 29.0652 37.0427C29.2149 36.9776 29.3659 36.9159 29.5173 36.8552C30.125 36.6118 30.7417 36.3877 31.3104 36.0573C32.4826 35.3767 33.293 34.3888 33.7572 33.1087C34.0428 32.3207 34.3439 31.5384 34.6379 30.7536C34.6582 30.6996 34.6724 30.6421 34.7626 30.5845C35.0394 31.2589 35.3192 31.9038 35.5705 32.56C35.94 33.5249 36.4033 34.4222 37.1753 35.1352C37.847 35.7557 38.6355 36.1532 39.4843 36.4567C39.6928 36.5312 39.8996 36.6102 40.1067 36.6881C40.5322 36.8485 40.9564 37.0119 41.3808 37.175C41.444 37.1994 41.5529 37.1939 41.5444 37.2949C41.5383 37.3676 41.4456 37.3733 41.3859 37.3984Z" fill="white"/>
<path fill-rule="evenodd" clip-rule="evenodd" d="M0 0.208771H4.07098L4.07098 1.46138H44.6764V0.208771H48.7474V4.27975H47.6137L48.7368 46.3466H50V50.4175H45.929V49.2504L6.05428 45.6348V46.7641H1.9833V42.6931H3.30377L1.48419 4.27975H0V0.208771ZM44.6764 3.13153H4.07098L4.07098 4.27975H3.15621L4.97579 42.6931H6.05428V43.9578L45.929 47.5734V46.3466H47.0661L45.9429 4.27975H44.6764V3.13153ZM1.14823 1.35699H2.92276V3.13152H1.14823V1.35699ZM3.13152 43.8413H4.90605V45.6159H3.13152V43.8413ZM48.8518 47.4948H47.0772V49.2693H48.8518V47.4948ZM45.8246 1.35699H47.5992V3.13152H45.8246V1.35699Z" fill="white"/>
</svg>
